<svg width="60" height="60" viewBox="0 0 60 60" fill="none" xmlns="http://www.w3.org/2000/svg">
<g clip-path="url(#clip0_46_596)">
<mask id="mask0_46_596" style="mask-type:alpha" maskUnits="userSpaceOnUse" x="0" y="0" width="60" height="60">
<rect width="60" height="60" rx="1" fill="#D9D9D9"/>
</mask>
<g mask="url(#mask0_46_596)">
<rect width="60" height="60" fill="#B8D9FF"/>
<path d="M17.1429 10.7142C17.1429 14.2646 14.2647 17.1428 10.7143 17.1428C7.16394 17.1428 4.28577 14.2646 4.28577 10.7142C4.28577 7.16381 7.16394 4.28564 10.7143 4.28564C14.2647 4.28564 17.1429 7.16381 17.1429 10.7142Z" fill="#5CA5FB"/>
<path d="M12.7886 36.6982C13.9776 35.401 16.0225 35.401 17.2115 36.6981L33.9632 54.9728C35.7271 56.897 34.3621 59.9999 31.7517 59.9999H-1.7517C-4.36202 59.9999 -5.72702 56.897 -3.96317 54.9728L12.7886 36.6982Z" fill="#0D76F2"/>
<path d="M42.6954 24.1941C43.8948 22.7548 46.1053 22.7548 47.3047 24.1941L73.0424 55.0793C74.6707 57.0333 73.2813 59.9999 70.7378 59.9999H19.2623C16.7188 59.9999 15.3293 57.0333 16.9576 55.0793L42.6954 24.1941Z" fill="#0D76F2"/>
</g>
</g>
<defs>
<clipPath id="clip0_46_596">
<rect width="60" height="60" rx="5" fill="white"/>
</clipPath>
</defs>
</svg>
