<svg width="160" height="52" viewBox="0 0 160 52" fill="none" xmlns="http://www.w3.org/2000/svg">
<path d="M105.825 13.3421V10.4564H99.8635V13.3421C99.8197 19.1133 94.6257 25.3655 85.7499 26.9395L88.1606 31.574C95.064 30.1749 100.236 26.24 102.866 21.1901C105.452 26.2837 110.602 30.1968 117.571 31.574L120.026 26.9395C110.997 25.4093 105.803 19.1789 105.825 13.3421ZM84.8294 42.9854H121.341V38.3946H84.8294V42.9854Z" fill="#2B2B2B"/>
<path d="M156.274 11.5932H127.784V16.0528H150.795V16.2277C150.795 18.2826 150.774 20.3375 150.686 22.5236L126.557 23.3981L127.258 27.8577L150.401 26.7209C150.116 29.4098 149.656 32.3391 148.867 35.6401L154.433 36.1648C156.252 27.5298 156.252 22.0208 156.274 16.2277V11.5932ZM123.62 43.1165H160V38.5695H123.62V43.1165Z" fill="#2B2B2B"/>
<path d="M2.04015 8.14018C2.04015 3.64448 5.69376 0 10.2007 0H37.7579C43.3916 0 47.9586 4.55561 47.9586 10.1752V40.9135C47.9586 46.5332 43.3916 51.0888 37.7579 51.0888H10.2007C5.69377 51.0888 2.04015 47.4443 2.04015 42.9486V8.14018Z" fill="url(#paint0_linear_72_1516)"/>
<path d="M51.0036 43.8598C51.0036 48.3555 47.35 52 42.8431 52C38.3361 52 34.6825 48.3555 34.6825 43.8598C34.6825 39.3641 38.3361 35.7196 42.8431 35.7196C47.35 35.7196 51.0036 39.3641 51.0036 43.8598Z" fill="#154197"/>
<path d="M40.7539 33.6045C40.7849 33.6558 40.803 33.7163 40.803 33.7762C40.803 33.9538 40.9473 34.0977 41.1253 34.0977H47.4127C47.6414 34.0977 47.8269 33.9128 47.8269 33.6846C47.9302 28.0726 50.0489 27.6467 54.1805 25.1333C58.5533 22.4479 61.2044 18.7639 61.2044 13.2208C61.2044 5.37096 55.2135 0 46.2615 0C39.35 0 33.5652 3.40435 31.7579 9.73792C31.1753 11.7795 32.942 13.5651 35.0701 13.5651C37.0633 13.5651 38.5918 11.9367 39.4735 10.1536C40.8145 7.44163 43.5097 6.19726 46.2615 6.19726C50.3932 6.19726 53.6985 8.91717 53.6985 13.2208C53.6985 16.8359 51.4949 19.3837 48.6028 21.1395C44.081 23.9484 37.5998 28.3836 40.7539 33.6045Z" fill="#9ECBFF"/>
<path d="M69.9148 8.48896H64.3483V47.7948H69.9148V28.2074H78.2428V23.6604H69.9148V8.48896Z" fill="#2B2B2B"/>
<path d="M0 25.5444C0 24.4205 0.913404 23.5094 2.04015 23.5094H20.4015C21.5282 23.5094 22.4416 24.4205 22.4416 25.5444C22.4416 26.6683 21.5282 27.5794 20.4015 27.5794H2.04014C0.913404 27.5794 0 26.6683 0 25.5444Z" fill="#F2F9FC"/>
<path d="M0 35.7196C0 34.5957 0.913404 33.6846 2.04015 33.6846H20.4015C21.5282 33.6846 22.4416 34.5957 22.4416 35.7196C22.4416 36.8436 21.5282 37.7547 20.4015 37.7547H2.04014C0.913404 37.7547 0 36.8436 0 35.7196Z" fill="#F2F9FC"/>
<path d="M0 15.3692C0 14.2452 0.913404 13.3341 2.04015 13.3341H20.4015C21.5282 13.3341 22.4416 14.2452 22.4416 15.3692C22.4416 16.4931 21.5282 17.4042 20.4015 17.4042H2.04014C0.913404 17.4042 0 16.4931 0 15.3692Z" fill="#F2F9FC"/>
<defs>
<linearGradient id="paint0_linear_72_1516" x1="80" y1="1.00984e-06" x2="94.99" y2="80.5027" gradientUnits="userSpaceOnUse">
<stop stop-color="#0D77F3"/>
<stop offset="1" stop-color="#00C2FF"/>
</linearGradient>
</defs>
</svg>
